PathFileType	4	(X/Y/Z)	C:\Users\WrightLab\Desktop\Jo\P1_boxCal20.trc
DataRate	CameraRate	NumFrames	NumMarkers	Units	OrigDataRate	OrigDataStartFrame	OrigNumFrames
100.00	100.00	       6	19	mm	100.00	703	       937
Frame#	Time	Headset_Front			Headset_Back			Headset_Left			Headset_Right			Left_Shoulder			Right_Shoulder			Sternum			C7			Left Elbow			Right Elbow			Left Wrist			Right Wrist			Left ASIS			Right ASIS			S2			Left Knee			Right Knee			Left Ankle			Right Ankle			
		X1	Y1	Z1	X2	Y2	Z2	X3	Y3	Z3	X4	Y4	Z4	X5	Y5	Z5	X6	Y6	Z6	X7	Y7	Z7	X8	Y8	Z8	X9	Y9	Z9	X10	Y10	Z10	X11	Y11	Z11	X12	Y12	Z12	X13	Y13	Z13	X14	Y14	Z14	X15	Y15	Z15	X16	Y16	Z16	X17	Y17	Z17	X18	Y18	Z18	X19	Y19	Z19	

703	7.020	-387.55753	1361.03259	-142.73883	-537.02679	1488.60315	-32.29889	-612.45190	1390.57397	-147.43158	-463.32178	1288.72412	-252.07103	-712.94019	1256.56580	-73.61295	-361.99249	1234.51721	45.96350	-499.32452	1113.79517	-96.69638	-585.31262	1289.44397	91.03668	-817.60333	954.40833	-92.57344	-306.92258	979.61768	164.21912	-724.09802	836.05084	-276.42288	-236.08003	741.85480	138.22655	-630.22687	853.43579	-107.93414	-441.93652	833.35913	-40.68589	-638.63434	919.41504	215.51439	-829.58734	468.77643	-61.97298	-432.91708	435.73669	136.48761	-893.16895	113.62505	-117.00789	-505.98468	25.64122	282.23434	
704	7.030	-392.71582	1360.84766	-147.81616	-541.34235	1488.55212	-36.01776	-616.86572	1391.18860	-151.38681	-468.48111	1289.62305	-257.73206	-718.38165	1256.22766	-76.97791	-366.71927	1232.99475	38.78642	-504.32367	1114.42261	-103.06086	-589.19080	1288.77637	86.39420	-823.22339	953.33362	-91.38072	-311.14923	978.99445	158.14458	-734.21777	831.37817	-275.19958	-238.76019	741.19647	131.39809	-634.74799	852.65601	-113.27937	-445.36554	833.33069	-47.71386	-641.00360	917.88635	209.53864	-832.96161	467.26889	-65.86816	-435.75732	435.61194	133.23077	-895.60645	112.02510	-120.74569	-505.69846	25.78088	281.80719	
705	7.040	-397.39798	1361.18103	-153.13892	-544.70154	1487.11621	-39.31496	-621.70734	1391.14233	-155.08113	-473.57983	1290.75562	-262.66312	-723.75177	1255.55640	-81.41672	-370.90384	1232.77344	34.31019	-508.80692	1114.96301	-109.03323	-593.29352	1287.83374	81.67172	-829.11804	952.93390	-90.91660	-313.96155	978.42511	152.21957	-744.96069	827.89642	-273.92010	-241.86853	741.41504	122.88945	-639.66248	852.48053	-119.11160	-450.08524	833.16547	-54.51793	-644.72211	916.85815	204.67732	-836.32141	464.97110	-69.92563	-438.37390	435.22675	129.75880	-898.21362	110.38740	-124.89706	-505.45007	25.87237	281.46823	
706	7.050	-402.40768	1361.31677	-157.81926	-550.21442	1487.29309	-43.15825	-626.68115	1392.09619	-159.94235	-478.76730	1291.91980	-267.98773	-729.09698	1255.05176	-85.36571	-375.93060	1231.48804	27.49237	-514.59229	1114.11182	-115.21946	-597.46112	1286.90540	77.15486	-835.46582	952.25043	-91.20139	-317.75525	978.98773	147.69211	-755.53723	823.11102	-272.42163	-245.47606	740.30994	115.20467	-644.85803	852.59399	-125.20905	-454.67502	833.18610	-61.99218	-647.60168	915.68427	198.33810	-839.14264	462.99454	-75.54173	-440.93112	435.52466	126.20672	-901.36658	109.16035	-128.21877	-505.29129	25.98484	280.99747	
707	7.060	-407.33371	1361.55042	-162.67354	-555.41962	1486.80164	-47.05103	-631.79626	1392.72217	-164.14581	-484.45978	1293.06372	-273.16223	-734.44763	1254.82007	-89.28254	-380.98804	1230.94507	21.94100	-518.37256	1113.29236	-119.40419	-601.69946	1285.65747	72.30591	-842.22406	952.12701	-90.87529	-322.55963	977.53674	138.81894	-767.70959	820.04700	-273.88605	-248.26225	741.19128	106.71560	-649.62836	852.39471	-132.63377	-458.36884	832.70636	-69.37200	-652.67023	914.26733	193.03046	-842.13879	460.41821	-79.82896	-443.80875	435.41299	122.36681	-903.88477	106.18161	-128.81676	-504.71490	26.61615	280.41510	
708	7.070	-412.29807	1361.25598	-167.63614	-559.20709	1486.24255	-51.00619	-637.11078	1393.29053	-169.38683	-489.41693	1294.03943	-278.37494	-740.25092	1254.44861	-93.44266	-386.42081	1229.74719	15.79713	-526.30469	1113.55933	-128.42268	-606.69476	1284.84961	66.74062	-848.93121	952.16364	-91.36615	-327.66223	977.49847	132.74440	-778.51373	816.79138	-271.48914	-251.43066	740.77576	99.68970	-655.05786	852.86816	-139.88466	-463.39780	832.40649	-75.90681	-656.07959	913.17041	186.04544	-845.64868	459.30923	-85.86321	-446.14688	435.74506	118.73805	-906.26599	103.04393	-129.81102	-504.20432	27.37582	279.46460	
